<?xml version="1.0" encoding="utf-8"?>
<!-- Generator: Adobe Illustrator 27.6.1, SVG Export Plug-In . SVG Version: 6.00 Build 0)  -->
<svg version="1.1" id="Layer_1" xmlns="http://www.w3.org/2000/svg" xmlns:xlink="http://www.w3.org/1999/xlink" x="0px" y="0px"
	 viewBox="0 0 1000 309.3" style="enable-background:new 0 0 1000 309.3;" xml:space="preserve">
<style type="text/css">
	.st0{fill:#328A75;}
</style>
<g>
	<path class="st0" d="M143.9,221.4c10.9,0,20.7-2.8,28.9-8.3c5.2-3.5,9.5-7.7,12.9-12.8v2c0,5,1.6,9.2,4.9,12.5
		c3.3,3.3,7.5,4.9,12.5,4.9h14.4V87.5h-31.9v19.2c-3.4-5-7.7-9.2-12.9-12.7c-8.3-5.4-17.9-8.2-28.9-8.2c-11.5,0-22.1,2.9-31.5,8.5
		S95.4,107.9,89.9,118s-8.3,22.1-8.3,35.5s2.8,25.4,8.3,35.5c5.5,10.2,13,18.1,22.4,23.8C121.8,218.5,132.4,221.4,143.9,221.4z
		 M114.1,153.5c0-8.7,1.8-16,5.2-21.8c3.4-5.8,7.9-10.2,13.4-13.2c5.5-3,11.3-4.5,17.3-4.5c6.1,0,12,1.5,17.4,4.5s9.9,7.4,13.3,13.2
		c3.4,5.8,5.2,13.1,5.2,21.8c0,8.5-1.8,15.9-5.2,21.8s-7.9,10.4-13.3,13.4c-10.7,5.9-23.5,6.1-34.6,0c-5.5-3-9.9-7.5-13.4-13.4
		C115.9,169.4,114.1,162.1,114.1,153.5z"/>
	<path class="st0" d="M262.5,200.3c3.5,5,7.8,9.4,13,12.8c8.3,5.5,18,8.3,28.8,8.3c11.5,0,22.1-2.9,31.5-8.6
		c9.4-5.7,16.9-13.7,22.4-23.8s8.3-22.1,8.3-35.5c0-13.4-2.8-25.4-8.3-35.5c-5.5-10.2-13-18.1-22.4-23.7s-20-8.5-31.5-8.5
		c-10.8,0-20.4,2.7-28.8,8.2c-5.2,3.4-9.6,7.7-13,12.7V87.6h-31.9v177.8h31.9V200.3z M267.7,175.3c-3.4-5.9-5.2-13.3-5.2-21.8
		c0-8.7,1.8-16,5.2-21.8c3.4-5.8,7.9-10.2,13.4-13.2s11.3-4.5,17.3-4.5c6.1,0,12,1.5,17.4,4.5s9.9,7.4,13.3,13.2
		c3.4,5.8,5.2,13.1,5.2,21.8c0,8.5-1.8,15.9-5.2,21.8c-3.4,5.9-7.9,10.4-13.3,13.4c-10.7,5.9-23.5,6.1-34.6,0
		C275.6,185.7,271.1,181.2,267.7,175.3z"/>
	<path class="st0" d="M409.3,200.3c3.5,5,7.8,9.4,13,12.8c8.3,5.5,18,8.3,28.8,8.3c11.5,0,22.1-2.9,31.5-8.6
		c9.4-5.7,16.9-13.7,22.4-23.8s8.3-22.1,8.3-35.5c0-13.4-2.8-25.4-8.3-35.5c-5.5-10.2-13-18.1-22.4-23.7s-20-8.5-31.5-8.5
		c-10.8,0-20.4,2.7-28.8,8.2c-5.2,3.4-9.6,7.7-13,12.7V87.6h-31.9v177.8h31.9L409.3,200.3L409.3,200.3z M414.5,175.3
		c-3.4-5.9-5.2-13.3-5.2-21.8c0-8.7,1.8-16,5.2-21.8c3.4-5.8,7.9-10.2,13.4-13.2s11.3-4.5,17.3-4.5c6.1,0,12,1.5,17.4,4.5
		s9.9,7.4,13.3,13.2c3.4,5.8,5.2,13.1,5.2,21.8c0,8.5-1.8,15.9-5.2,21.8c-3.4,5.9-7.9,10.4-13.3,13.4c-10.7,5.9-23.5,6.1-34.6,0
		C422.4,185.7,417.9,181.2,414.5,175.3z"/>
	<path class="st0" d="M567.1,193c-1,0.5-2.3,0.7-3.8,0.7c-2.1,0-3.8-0.7-5.4-2.1c-1.5-1.3-2.1-3.2-2.1-5.8V43.9h-31.6v144.2
		c0,7.7,1.7,14.2,5,19.1c3.3,4.9,7.7,8.6,12.9,10.9c5,2.2,10.3,3.3,15.6,3.3c6.6,0,12.4-1.5,17.3-4.3l1.8-1l-6.9-24.3L567.1,193z"/>
	<path class="st0" d="M678.3,106.7c-3.4-5-7.7-9.3-12.9-12.7c-8.3-5.5-17.9-8.2-28.9-8.2c-11.5,0-22.1,2.9-31.5,8.5
		s-16.9,13.6-22.4,23.7s-8.3,22.1-8.3,35.5s2.8,25.4,8.3,35.5c5.5,10.2,13,18.1,22.4,23.8s20,8.6,31.5,8.6c10.9,0,20.7-2.8,28.9-8.3
		c5.2-3.5,9.5-7.7,12.9-12.8v2c0,5,1.6,9.2,4.9,12.5c3.3,3.3,7.5,4.9,12.5,4.9h14.4V87.5h-31.9L678.3,106.7L678.3,106.7z
		 M673.2,131.7c3.4,5.8,5.2,13.1,5.2,21.8c0,8.6-1.8,15.9-5.2,21.8s-7.9,10.4-13.3,13.4c-10.7,5.9-23.5,6.1-34.6,0
		c-5.5-3-10-7.5-13.4-13.4s-5.2-13.3-5.2-21.8c0-8.7,1.8-16,5.2-21.8c3.4-5.8,7.9-10.2,13.4-13.2s11.3-4.5,17.3-4.5
		c6.1,0,12,1.5,17.4,4.5C665.3,121.5,669.8,125.9,673.2,131.7z"/>
	<path class="st0" d="M678.3,106.7c-3.4-5-7.7-9.3-12.9-12.7c-8.3-5.5-17.9-8.2-28.9-8.2c-11.5,0-22.1,2.9-31.5,8.5
		s-16.9,13.6-22.4,23.7s-8.3,22.1-8.3,35.5s2.8,25.4,8.3,35.5c5.5,10.2,13,18.1,22.4,23.8s20,8.6,31.5,8.6c10.9,0,20.7-2.8,28.9-8.3
		c5.2-3.5,9.5-7.7,12.9-12.8v2c0,5,1.6,9.2,4.9,12.5c3.3,3.3,7.5,4.9,12.5,4.9h14.4V87.5h-31.9L678.3,106.7L678.3,106.7z
		 M673.2,131.7c3.4,5.8,5.2,13.1,5.2,21.8c0,8.6-1.8,15.9-5.2,21.8s-7.9,10.4-13.3,13.4c-10.7,5.9-23.5,6.1-34.6,0
		c-5.5-3-10-7.5-13.4-13.4s-5.2-13.3-5.2-21.8c0-8.7,1.8-16,5.2-21.8c3.4-5.8,7.9-10.2,13.4-13.2s11.3-4.5,17.3-4.5
		c6.1,0,12,1.5,17.4,4.5C665.3,121.5,669.8,125.9,673.2,131.7z"/>
	<path class="st0" d="M774.8,75.6c-5.2-3.3-10-4.6-14.1,0.1c-4.5,5.2-1.1,9.9,3,13.7l48.7,51.3l82.1-77.8c5.2-4.7,6.3-9,3.6-13.1
		c-3-4.7-8.5-5.2-14.7-0.6l-71.2,49.7C812.2,99,775,75.7,774.8,75.6z"/>
	<path class="st0" d="M844.5,218.9c4.4,2.9,8.6,3.9,12-0.1c3.8-4.4,0.9-8.4-2.6-11.7l-41.4-43.6l-69.9,66.1c-4.4,4.1-5.3,7.7-3,11.1
		c2.6,4,7.2,4.4,12.5,0.5l60.5-42.3C812.7,199,844.3,218.8,844.5,218.9z"/>
	<path class="st0" d="M888.9,114.6c3.3-5.2,4.6-10-0.1-14.1c-5.2-4.5-9.9-1.1-13.7,3l-51.3,48.7l77.8,82.1c4.7,5.2,9,6.3,13.1,3.6
		c4.7-3,5.2-8.5,0.6-14.7L865.6,152C865.5,152,888.8,114.8,888.9,114.6z"/>
	<path class="st0" d="M751.9,180.5c-2.5,4-3.5,7.5,0.1,10.6c4,3.4,7.4,0.8,10.3-2.3l38.5-36.6l-58.4-61.6c-3.6-4-6.8-4.7-9.8-2.7
		c-3.5,2.3-3.9,6.4-0.4,11.1l37.4,53.5C769.5,152.4,751.9,180.4,751.9,180.5z"/>
</g>
</svg>
